# xmcd
#
# Track frame offsets: 
#        150
#        15300
#        33675
#        53175
#        83925
#        105075
#        125325
#        143550
#        161925
#        176990
#        200765
#
# Disc length: 2912 seconds
#
# Revision: 0
# Processed by: cddbd v1.5.2PL0 Copyright (c) Steve Scherf et al.
# Submitted via: ExactAudioCopy v0.95a5
#
DISCID=920b5e0b
DTITLE=Blues Junkers - Live
DYEAR=1900
DGENRE=Blues
TTITLE0=We Gonna Roch ( c. Gant)
TTITLE1=Blues Not Dead (D. Ablamowicz)
TTITLE2=Mary Jane (T. Leavey)
TTITLE3=Summertime ( G. Gershwin)
TTITLE4=Lets Get High (G.Jones)
TTITLE5=Glory Of Love (B.Hill)
TTITLE6=Ring Of Fire (J>Cash)
TTITLE7=Ain't Nobody Business ( P.Grainger/E.Robbins)
TTITLE8=When My Baby Left Me (D.Ablamowicz)
TTITLE9=Guess Who (S.Eaglin)
TTITLE10=You Call Everybody Sweetheart But  Me (S.Eaglin)
EXTD=
EXTT0=
EXTT1=
EXTT2=
EXTT3=
EXTT4=
EXTT5=
EXTT6=
EXTT7=
EXTT8=
EXTT9=
EXTT10=
PLAYORDER=
